{
    "asset" : {
        "generator" : "Khronos glTF Blender I/O v1.0.5",
        "version" : "2.0"
    },
    "scene" : 0,
    "scenes" : [
        {
            "name" : "Scene",
            "nodes" : [
                9
            ]
        }
    ],
    "nodes" : [
        {
            "mesh" : 0,
            "name" : "chestpiece",
            "scale" : [
                0.22715438902378082,
                0.22715438902378082,
                0.22715438902378082
            ],
            "translation" : [
                -0.011927089653909206,
                -0.5474434494972229,
                0
            ]
        },
        {
            "mesh" : 1,
            "name" : "eyemask",
            "scale" : [
                0.18180511891841888,
                0.18180511891841888,
                0.18180511891841888
            ],
            "translation" : [
                0,
                0.45640167593955994,
                5.119187355041504
            ]
        },
        {
            "mesh" : 2,
            "name" : "leftarm",
            "rotation" : [
                0,
                0,
                0.5515056848526001,
                0.8341711759567261
            ],
            "scale" : [
                0.09977621585130692,
                0.09977621585130692,
                0.09977620840072632
            ],
            "translation" : [
                0.5721611380577087,
                -0.35492706298828125,
                0
            ]
        },
        {
            "mesh" : 3,
            "name" : "legs",
            "rotation" : [
                0,
                0,
                -0.36442431807518005,
                0.9312329888343811
            ],
            "scale" : [
                0.09977621585130692,
                0.09977621585130692,
                0.09977620840072632
            ],
            "translation" : [
                0.2822718918323517,
                -1.1753301620483398,
                0
            ]
        },
        {
            "mesh" : 4,
            "name" : "letterc",
            "rotation" : [
                0.7071068286895752,
                0,
                0,
                0.7071068286895752
            ],
            "scale" : [
                0.6339821219444275,
                0.6339821219444275,
                0.6339821219444275
            ],
            "translation" : [
                -0.169559046626091,
                -0.6883861422538757,
                0.027454456314444542
            ]
        },
        {
            "mesh" : 5,
            "name" : "pupils",
            "scale" : [
                0.06174671649932861,
                0.06174671649932861,
                0.06174671649932861
            ],
            "translation" : [
                0.3518427610397339,
                0.46634072065353394,
                0.8383824825286865
            ]
        },
        {
            "mesh" : 6,
            "name" : "rightarm",
            "rotation" : [
                0.9999238848686218,
                -7.615242793690413e-05,
                0.008726202882826328,
                0.008726202882826328
            ],
            "scale" : [
                -0.09977621585130692,
                -0.09977621585130692,
                -0.09977619349956512
            ],
            "translation" : [
                -0.5656623244285583,
                -0.4837372899055481,
                0
            ]
        },
        {
            "mesh" : 7,
            "name" : "torso",
            "scale" : [
                0.509860098361969,
                0.509860098361969,
                0.509860098361969
            ],
            "translation" : [
                0,
                -0.7213371992111206,
                0
            ]
        },
        {
            "mesh" : 8,
            "name" : "underscore",
            "scale" : [
                0.024716774001717567,
                0.024716774001717567,
                0.024716774001717567
            ],
            "translation" : [
                0.272087961435318,
                -0.7294686436653137,
                0.9560385942459106
            ]
        },
        {
            "children" : [
                0,
                1,
                2,
                3,
                4,
                5,
                6,
                7,
                8
            ],
            "mesh" : 9,
            "name" : "head",
            "scale" : [
                1.2575299739837646,
                1.2575299739837646,
                1.2575299739837646
            ],
            "translation" : [
                0,
                -0.323965460062027,
                0
            ]
        }
    ],
    "materials" : [
        {
            "doubleSided" : true,
            "name" : "Material.003",
            "pbrMetallicRoughness" : {
                "baseColorFactor" : [
                    1,
                    1,
                    1,
                    1
                ],
                "metallicFactor" : 0,
                "roughnessFactor" : 0.5
            }
        },
        {
            "doubleSided" : true,
            "name" : "Material.001",
            "pbrMetallicRoughness" : {
                "baseColorFactor" : [
                    0.12743768095970154,
                    0,
                    0.7758224010467529,
                    1
                ],
                "metallicFactor" : 0,
                "roughnessFactor" : 0.5
            }
        },
        {
            "doubleSided" : true,
            "name" : "Material.002",
            "pbrMetallicRoughness" : {
                "baseColorFactor" : [
                    0,
                    0,
                    0,
                    1
                ],
                "metallicFactor" : 0,
                "roughnessFactor" : 0.5
            }
        }
    ],
    "meshes" : [
        {
            "name" : "Cube.013",
            "primitives" : [
                {
                    "attributes" : {
                        "POSITION" : 0,
                        "NORMAL" : 1,
                        "TEXCOORD_0" : 2
                    },
                    "indices" : 3,
                    "material" : 0
                }
            ]
        },
        {
            "name" : "Cube.012",
            "primitives" : [
                {
                    "attributes" : {
                        "POSITION" : 4,
                        "NORMAL" : 5,
                        "TEXCOORD_0" : 6,
                        "COLOR_0" : 7
                    },
                    "indices" : 8,
                    "material" : 0
                }
            ]
        },
        {
            "name" : "Cube.011",
            "primitives" : [
                {
                    "attributes" : {
                        "POSITION" : 9,
                        "NORMAL" : 10,
                        "TEXCOORD_0" : 11
                    },
                    "indices" : 12,
                    "material" : 1
                }
            ]
        },
        {
            "name" : "Cube.010",
            "primitives" : [
                {
                    "attributes" : {
                        "POSITION" : 13,
                        "NORMAL" : 14,
                        "TEXCOORD_0" : 15
                    },
                    "indices" : 16,
                    "material" : 1
                }
            ]
        },
        {
            "name" : "Text",
            "primitives" : [
                {
                    "attributes" : {
                        "POSITION" : 17,
                        "NORMAL" : 18
                    },
                    "indices" : 19,
                    "material" : 1
                }
            ]
        },
        {
            "name" : "Sphere.010",
            "primitives" : [
                {
                    "attributes" : {
                        "POSITION" : 20,
                        "NORMAL" : 21,
                        "TEXCOORD_0" : 22
                    },
                    "indices" : 23,
                    "material" : 2
                }
            ]
        },
        {
            "name" : "Cube.009",
            "primitives" : [
                {
                    "attributes" : {
                        "POSITION" : 24,
                        "NORMAL" : 25,
                        "TEXCOORD_0" : 26
                    },
                    "indices" : 12,
                    "material" : 1
                }
            ]
        },
        {
            "name" : "Sphere.009",
            "primitives" : [
                {
                    "attributes" : {
                        "POSITION" : 27,
                        "NORMAL" : 28,
                        "TEXCOORD_0" : 29
                    },
                    "indices" : 30,
                    "material" : 1
                }
            ]
        },
        {
            "name" : "Cube.014",
            "primitives" : [
                {
                    "attributes" : {
                        "POSITION" : 31,
                        "NORMAL" : 32,
                        "TEXCOORD_0" : 33
                    },
                    "indices" : 34,
                    "material" : 0
                }
            ]
        },
        {
            "name" : "Sphere.008",
            "primitives" : [
                {
                    "attributes" : {
                        "POSITION" : 35,
                        "NORMAL" : 36,
                        "TEXCOORD_0" : 37
                    },
                    "indices" : 38,
                    "material" : 1
                },
                {
                    "attributes" : {
                        "POSITION" : 39,
                        "NORMAL" : 40,
                        "TEXCOORD_0" : 41
                    },
                    "indices" : 42,
                    "material" : 0
                }
            ]
        }
    ],
    "accessors" : [
        {
            "bufferView" : 0,
            "componentType" : 5126,
            "count" : 3456,
            "max" : [
                1,
                1,
                2.303443193435669
            ],
            "min" : [
                -1,
                -1,
                1.5319185256958008
            ],
            "type" : "VEC3"
        },
        {
            "bufferView" : 1,
            "componentType" : 5126,
            "count" : 3456,
            "type" : "VEC3"
        },
        {
            "bufferView" : 2,
            "componentType" : 5126,
            "count" : 3456,
            "type" : "VEC2"
        },
        {
            "bufferView" : 3,
            "componentType" : 5123,
            "count" : 5184,
            "type" : "SCALAR"
        },
        {
            "bufferView" : 4,
            "componentType" : 5126,
            "count" : 322,
            "max" : [
                3.702643871307373,
                0.9622796177864075,
                -23.060449600219727
            ],
            "min" : [
                -3.3464813232421875,
                -0.8372644782066345,
                -24.68739891052246
            ],
            "type" : "VEC3"
        },
        {
            "bufferView" : 5,
            "componentType" : 5126,
            "count" : 322,
            "type" : "VEC3"
        },
        {
            "bufferView" : 6,
            "componentType" : 5126,
            "count" : 322,
            "type" : "VEC2"
        },
        {
            "bufferView" : 7,
            "componentType" : 5126,
            "count" : 322,
            "type" : "VEC4"
        },
        {
            "bufferView" : 8,
            "componentType" : 5123,
            "count" : 1344,
            "type" : "SCALAR"
        },
        {
            "bufferView" : 9,
            "componentType" : 5126,
            "count" : 319,
            "max" : [
                2.6927261352539062,
                1.9448353052139282,
                0.9166666865348816
            ],
            "min" : [
                -2.2074127197265625,
                -2.1385719776153564,
                -0.9166666865348816
            ],
            "type" : "VEC3"
        },
        {
            "bufferView" : 10,
            "componentType" : 5126,
            "count" : 319,
            "type" : "VEC3"
        },
        {
            "bufferView" : 11,
            "componentType" : 5126,
            "count" : 319,
            "type" : "VEC2"
        },
        {
            "bufferView" : 12,
            "componentType" : 5123,
            "count" : 1344,
            "type" : "SCALAR"
        },
        {
            "bufferView" : 13,
            "componentType" : 5126,
            "count" : 716,
            "max" : [
                2.6927261352539062,
                1.9448353052139282,
                0.9166666865348816
            ],
            "min" : [
                -5.996041774749756,
                -6.664098739624023,
                -0.9166666865348816
            ],
            "type" : "VEC3"
        },
        {
            "bufferView" : 14,
            "componentType" : 5126,
            "count" : 716,
            "type" : "VEC3"
        },
        {
            "bufferView" : 15,
            "componentType" : 5126,
            "count" : 716,
            "type" : "VEC2"
        },
        {
            "bufferView" : 16,
            "componentType" : 5123,
            "count" : 2688,
            "type" : "SCALAR"
        },
        {
            "bufferView" : 17,
            "componentType" : 5126,
            "count" : 447,
            "max" : [
                0.47136276960372925,
                0.8520852327346802,
                0.019005928188562393
            ],
            "min" : [
                0.03098522126674652,
                0.7120852470397949,
                -0.4680057764053345
            ],
            "type" : "VEC3"
        },
        {
            "bufferView" : 18,
            "componentType" : 5126,
            "count" : 447,
            "type" : "VEC3"
        },
        {
            "bufferView" : 19,
            "componentType" : 5123,
            "count" : 1290,
            "type" : "SCALAR"
        },
        {
            "bufferView" : 20,
            "componentType" : 5126,
            "count" : 1118,
            "max" : [
                1.000000238418579,
                1,
                1.0000003576278687
            ],
            "min" : [
                -12.396322250366211,
                -1.0000004768371582,
                -1.0000009536743164
            ],
            "type" : "VEC3"
        },
        {
            "bufferView" : 21,
            "componentType" : 5126,
            "count" : 1118,
            "type" : "VEC3"
        },
        {
            "bufferView" : 22,
            "componentType" : 5126,
            "count" : 1118,
            "type" : "VEC2"
        },
        {
            "bufferView" : 23,
            "componentType" : 5123,
            "count" : 5760,
            "type" : "SCALAR"
        },
        {
            "bufferView" : 24,
            "componentType" : 5126,
            "count" : 319,
            "max" : [
                2.6927261352539062,
                1.9448353052139282,
                0.9166666865348816
            ],
            "min" : [
                -2.2074127197265625,
                -2.1385719776153564,
                -0.9166666865348816
            ],
            "type" : "VEC3"
        },
        {
            "bufferView" : 25,
            "componentType" : 5126,
            "count" : 319,
            "type" : "VEC3"
        },
        {
            "bufferView" : 26,
            "componentType" : 5126,
            "count" : 319,
            "type" : "VEC2"
        },
        {
            "bufferView" : 27,
            "componentType" : 5126,
            "count" : 362,
            "max" : [
                1.000000238418579,
                1.298280119895935,
                1.0000003576278687
            ],
            "min" : [
                -0.9999998211860657,
                -0.9336163997650146,
                -1
            ],
            "type" : "VEC3"
        },
        {
            "bufferView" : 28,
            "componentType" : 5126,
            "count" : 362,
            "type" : "VEC3"
        },
        {
            "bufferView" : 29,
            "componentType" : 5126,
            "count" : 362,
            "type" : "VEC2"
        },
        {
            "bufferView" : 30,
            "componentType" : 5123,
            "count" : 1914,
            "type" : "SCALAR"
        },
        {
            "bufferView" : 31,
            "componentType" : 5126,
            "count" : 40,
            "max" : [
                4.204083442687988,
                1,
                -20.031606674194336
            ],
            "min" : [
                -1.1278736591339111,
                -1,
                -24.700462341308594
            ],
            "type" : "VEC3"
        },
        {
            "bufferView" : 32,
            "componentType" : 5126,
            "count" : 40,
            "type" : "VEC3"
        },
        {
            "bufferView" : 33,
            "componentType" : 5126,
            "count" : 40,
            "type" : "VEC2"
        },
        {
            "bufferView" : 34,
            "componentType" : 5123,
            "count" : 60,
            "type" : "SCALAR"
        },
        {
            "bufferView" : 35,
            "componentType" : 5126,
            "count" : 6609,
            "max" : [
                0.9876837134361267,
                0.9975766539573669,
                0.9875591993331909
            ],
            "min" : [
                -0.9876831769943237,
                -0.1526624858379364,
                -0.9876833558082581
            ],
            "type" : "VEC3"
        },
        {
            "bufferView" : 36,
            "componentType" : 5126,
            "count" : 6609,
            "type" : "VEC3"
        },
        {
            "bufferView" : 37,
            "componentType" : 5126,
            "count" : 6609,
            "type" : "VEC2"
        },
        {
            "bufferView" : 38,
            "componentType" : 5123,
            "count" : 33894,
            "type" : "SCALAR"
        },
        {
            "bufferView" : 39,
            "componentType" : 5126,
            "count" : 273,
            "max" : [
                0.14995694160461426,
                0.18119044601917267,
                0.9875591993331909
            ],
            "min" : [
                -0.09270858764648438,
                0.03390805423259735,
                0.9202712178230286
            ],
            "type" : "VEC3"
        },
        {
            "bufferView" : 40,
            "componentType" : 5126,
            "count" : 273,
            "type" : "VEC3"
        },
        {
            "bufferView" : 41,
            "componentType" : 5126,
            "count" : 273,
            "type" : "VEC2"
        },
        {
            "bufferView" : 42,
            "componentType" : 5123,
            "count" : 1056,
            "type" : "SCALAR"
        }
    ],
    "bufferViews" : [
        {
            "buffer" : 0,
            "byteLength" : 41472,
            "byteOffset" : 0
        },
        {
            "buffer" : 0,
            "byteLength" : 41472,
            "byteOffset" : 41472
        },
        {
            "buffer" : 0,
            "byteLength" : 27648,
            "byteOffset" : 82944
        },
        {
            "buffer" : 0,
            "byteLength" : 10368,
            "byteOffset" : 110592
        },
        {
            "buffer" : 0,
            "byteLength" : 3864,
            "byteOffset" : 120960
        },
        {
            "buffer" : 0,
            "byteLength" : 3864,
            "byteOffset" : 124824
        },
        {
            "buffer" : 0,
            "byteLength" : 2576,
            "byteOffset" : 128688
        },
        {
            "buffer" : 0,
            "byteLength" : 5152,
            "byteOffset" : 131264
        },
        {
            "buffer" : 0,
            "byteLength" : 2688,
            "byteOffset" : 136416
        },
        {
            "buffer" : 0,
            "byteLength" : 3828,
            "byteOffset" : 139104
        },
        {
            "buffer" : 0,
            "byteLength" : 3828,
            "byteOffset" : 142932
        },
        {
            "buffer" : 0,
            "byteLength" : 2552,
            "byteOffset" : 146760
        },
        {
            "buffer" : 0,
            "byteLength" : 2688,
            "byteOffset" : 149312
        },
        {
            "buffer" : 0,
            "byteLength" : 8592,
            "byteOffset" : 152000
        },
        {
            "buffer" : 0,
            "byteLength" : 8592,
            "byteOffset" : 160592
        },
        {
            "buffer" : 0,
            "byteLength" : 5728,
            "byteOffset" : 169184
        },
        {
            "buffer" : 0,
            "byteLength" : 5376,
            "byteOffset" : 174912
        },
        {
            "buffer" : 0,
            "byteLength" : 5364,
            "byteOffset" : 180288
        },
        {
            "buffer" : 0,
            "byteLength" : 5364,
            "byteOffset" : 185652
        },
        {
            "buffer" : 0,
            "byteLength" : 2580,
            "byteOffset" : 191016
        },
        {
            "buffer" : 0,
            "byteLength" : 13416,
            "byteOffset" : 193596
        },
        {
            "buffer" : 0,
            "byteLength" : 13416,
            "byteOffset" : 207012
        },
        {
            "buffer" : 0,
            "byteLength" : 8944,
            "byteOffset" : 220428
        },
        {
            "buffer" : 0,
            "byteLength" : 11520,
            "byteOffset" : 229372
        },
        {
            "buffer" : 0,
            "byteLength" : 3828,
            "byteOffset" : 240892
        },
        {
            "buffer" : 0,
            "byteLength" : 3828,
            "byteOffset" : 244720
        },
        {
            "buffer" : 0,
            "byteLength" : 2552,
            "byteOffset" : 248548
        },
        {
            "buffer" : 0,
            "byteLength" : 4344,
            "byteOffset" : 251100
        },
        {
            "buffer" : 0,
            "byteLength" : 4344,
            "byteOffset" : 255444
        },
        {
            "buffer" : 0,
            "byteLength" : 2896,
            "byteOffset" : 259788
        },
        {
            "buffer" : 0,
            "byteLength" : 3828,
            "byteOffset" : 262684
        },
        {
            "buffer" : 0,
            "byteLength" : 480,
            "byteOffset" : 266512
        },
        {
            "buffer" : 0,
            "byteLength" : 480,
            "byteOffset" : 266992
        },
        {
            "buffer" : 0,
            "byteLength" : 320,
            "byteOffset" : 267472
        },
        {
            "buffer" : 0,
            "byteLength" : 120,
            "byteOffset" : 267792
        },
        {
            "buffer" : 0,
            "byteLength" : 79308,
            "byteOffset" : 267912
        },
        {
            "buffer" : 0,
            "byteLength" : 79308,
            "byteOffset" : 347220
        },
        {
            "buffer" : 0,
            "byteLength" : 52872,
            "byteOffset" : 426528
        },
        {
            "buffer" : 0,
            "byteLength" : 67788,
            "byteOffset" : 479400
        },
        {
            "buffer" : 0,
            "byteLength" : 3276,
            "byteOffset" : 547188
        },
        {
            "buffer" : 0,
            "byteLength" : 3276,
            "byteOffset" : 550464
        },
        {
            "buffer" : 0,
            "byteLength" : 2184,
            "byteOffset" : 553740
        },
        {
            "buffer" : 0,
            "byteLength" : 2112,
            "byteOffset" : 555924
        }
    ],
    "buffers" : [
        {
            "byteLength" : 558036,
            "uri" : "data:application/octet-stream;base64,"
        }
    ]
}
